<svg width="56" height="56" viewBox="0 0 56 56" fill="none" xmlns="http://www.w3.org/2000/svg">
<path d="M25.8867 55.3993C25.0777 55.3993 23.8643 54.9948 23.0553 54.9948C18.6061 54.1859 14.5613 52.5679 10.9209 49.7366C5.66271 45.2873 2.0224 40.0291 0.808959 33.1529C0 31.9395 0 30.3216 0 29.1081C0 26.6813 0 24.2544 0.404479 22.232C2.42688 11.7155 10.9209 2.81697 21.4374 0.79457C28.718 -0.823348 35.1897 -0.0143891 41.6614 3.62593C42.0659 4.03041 42.8748 4.43488 43.2793 4.83936C44.4927 5.64832 44.4927 6.86176 44.0883 7.67072C43.2793 8.88416 42.0659 8.88416 41.2569 8.47968C39.2345 7.26624 37.2121 6.0528 35.1897 5.64832C27.5046 3.22145 20.224 4.43488 14.1568 8.88416C9.30303 12.12 6.47167 16.5693 4.85375 22.232C3.23584 29.5126 4.44927 35.9843 8.89855 42.0515C12.5389 46.9052 16.9881 49.7366 23.0553 50.95C28.718 52.1635 33.9763 51.3545 38.83 48.5231C39.2345 48.1187 40.0435 47.7142 40.8524 47.7142C41.6614 47.7142 42.8748 48.1187 42.8748 49.3321C43.2793 50.1411 42.8748 51.3545 42.0659 51.759C40.8524 52.5679 39.639 52.9724 38.4255 53.7814C35.5942 54.9948 32.7628 55.8038 29.9315 55.8038H29.527H25.8867V55.3993Z" fill="#F36F21"/>
<path d="M28.3136 38.4105C26.2912 38.4105 25.0778 38.006 23.8644 36.7926C20.224 33.1523 16.5837 29.5119 12.5389 26.2761C11.73 25.4671 11.73 24.6582 12.1345 23.4448C12.5389 22.6358 13.3479 22.2313 14.1569 22.2313C14.5613 22.2313 15.3703 22.6358 15.7748 23.0403C19.4151 26.2761 23.0554 29.9164 26.6957 33.1523L27.1002 33.5567C27.9092 34.3657 28.3136 33.9612 28.7181 33.5567C30.336 31.5343 31.9539 29.5119 33.9763 27.0851C39.6391 19.8044 45.7062 12.5238 51.369 5.24318C52.1779 4.02974 53.3914 4.02974 54.6048 4.8387C55.4137 5.64766 55.8182 6.86109 54.6048 8.07453C49.3466 14.5462 44.0883 21.4224 38.8301 27.894C36.8077 30.7254 34.3808 33.1523 32.3584 35.9836C31.145 37.6015 29.9315 38.4105 28.3136 38.4105Z" fill="#F36F21"/>
<path d="M55.4138 27.8938C55.4138 33.5565 53.7959 38.4103 50.9645 42.8595C50.1555 44.073 48.9421 44.4775 47.7287 43.6685C46.9197 42.8595 46.5152 41.6461 47.3242 40.4327C48.9421 38.0058 50.1555 35.5789 50.56 32.7476C51.369 29.1072 51.369 25.4669 50.56 21.8266C50.1555 20.6132 50.56 19.3997 51.7735 18.9953C52.9869 18.5908 54.2003 18.9953 54.6048 20.6132C55.0093 23.04 55.4138 25.4669 55.4138 27.8938Z" fill="#F36F21"/>
</svg>
