<svg width="305" height="79" viewBox="0 0 305 79" fill="none" xmlns="http://www.w3.org/2000/svg">
<path d="M28.2098 68.0968C34.1298 73.0923 46.5582 72.3228 52.9072 65.5807C58.3737 59.2295 52.5762 47.553 38.4932 49.4462C31.9481 50.3256 26.1139 53.8188 23.5523 55.3455C23.2336 60.5608 24.7289 65.1655 28.1976 68.0968H28.2098Z" fill="url(#paint0_linear_701_116)"/>
<path d="M32.5617 77.5137C41.742 74.8511 50.5301 68.8541 52.9201 65.5808C46.5099 72.3961 34.0693 73.0312 28.2228 68.0968C24.7419 65.1655 23.2465 60.5608 23.5775 55.3455C19.594 57.9349 14.8507 59.8402 11.0633 59.5471C2.45909 58.8875 0.473499 48.4569 2.92485 39.9682C-2.08816 53.5867 -0.752182 66.7777 7.66821 73.9351C13.7108 79.1382 22.8298 80.3352 32.5617 77.5137Z" fill="url(#paint1_linear_701_116)"/>
<path d="M64.4909 26.301C70.3129 31.4308 71.3302 43.7791 65.545 51.0219C60.0295 57.3243 47.6011 53.2937 47.454 39.1256C47.3805 32.5423 50.0157 26.2888 51.1556 23.5529C56.2911 22.4902 61.0713 23.2964 64.4909 26.301Z" fill="url(#paint2_linear_701_116)"/>
<path d="M74.4673 29.2322C73.1435 38.6613 68.4614 48.2004 65.5443 51.034C71.3908 43.7301 70.2264 31.3696 64.4903 26.313C61.0706 23.3084 56.2905 22.4901 51.1549 23.5649C53.1528 19.2778 54.3662 14.319 53.5205 10.6304C51.6329 2.23944 40.9696 1.77531 32.9169 5.42727C45.7252 -1.47359 59.0115 -2.05985 67.3338 5.20742C73.3764 10.4105 75.8768 19.229 74.4795 29.2444L74.4673 29.2322Z" fill="url(#paint3_linear_701_116)"/>
<path d="M51.1548 23.5527C53.6429 18.2153 54.1944 13.574 53.5203 10.6182C51.6205 2.22726 40.9817 1.76314 32.9167 5.41509C19.6672 12.5602 8.02326 26.1299 2.92445 39.9682C0.460846 48.4447 2.44644 58.8754 11.0629 59.5471C14.1149 59.7792 18.6253 58.57 23.5771 55.3455C24.4473 41.4583 38.0646 26.3009 51.167 23.565L51.1548 23.5527Z" fill="url(#paint4_linear_701_116)"/>
<path d="M119.973 11.5752C113.652 12.0809 109.354 16.8847 108.595 23.4583C108.09 29.2734 111.376 33.3187 117.95 32.5602C124.018 31.8017 128.063 27.2507 128.822 20.6771C129.327 15.1148 125.788 11.0696 119.973 11.5752ZM123.512 21.6885C122.754 25.7337 120.478 28.2621 117.697 28.2621C114.41 28.5149 112.893 26.2394 113.399 22.4469C114.158 18.1488 116.686 15.1148 119.72 15.1148C122.754 15.3677 124.271 17.896 123.512 21.6885ZM132.867 30.0319C128.063 25.7337 130.339 17.3903 135.143 14.1035C140.452 10.0582 146.267 11.3224 149.048 13.5979L146.52 16.8847C144.497 14.862 140.452 14.6092 137.924 16.8847C133.626 20.4243 134.384 26.2394 137.165 27.7564C139.441 29.0206 143.233 28.0092 145.003 26.7451L146.267 30.7904C143.233 32.5602 136.912 34.0772 132.867 30.0319ZM208.211 30.7904C206.947 32.813 204.165 33.0658 202.396 31.8017C200.626 30.2847 201.131 27.2507 201.89 22.1941L204.924 6.5186L209.981 4.74878L206.441 22.9526C205.935 25.4809 205.682 27.5036 205.682 28.5149C205.935 30.0319 206.947 30.7904 208.211 30.7904ZM106.32 32.0545H97.7236C96.7123 32.0545 95.701 31.5489 95.1953 31.0432C94.6896 30.2847 94.4368 29.2734 94.6896 28.2621L98.7349 6.5186L104.044 4.74878L99.4934 27.5036V27.7564H99.7463H107.331L106.32 32.0545ZM200.373 15.3677C198.603 10.8167 190.26 10.0582 185.203 15.3677C182.169 18.4017 181.158 22.9526 182.422 27.5036C183.686 31.5489 188.996 34.8357 195.822 31.5489L196.833 26.9979C192.788 29.5262 186.214 29.5262 186.72 23.7111C190.26 24.9753 194.558 24.9753 198.097 22.6998C201.384 19.9186 200.879 16.379 200.373 15.3677ZM192.282 20.1715C188.743 20.6771 187.226 19.6658 187.226 19.6658C187.226 19.6658 188.237 16.379 192.03 15.6205C195.569 14.862 196.075 17.1375 196.075 17.1375C196.075 17.1375 196.833 19.413 192.282 20.1715ZM178.882 31.8017C176.607 32.5602 173.826 32.813 172.056 32.0545C170.792 31.5489 168.769 30.0319 169.528 26.2394L171.297 16.379H168.516L169.275 12.3337H172.056L173.32 6.26577L178.124 4.74878L176.607 12.5865H182.422L181.663 16.6318H175.848C175.848 16.6318 174.079 25.4809 174.079 26.2394C173.826 28.5149 175.848 29.0206 179.641 27.5036L178.882 31.8017ZM166.999 12.5865C156.38 9.04691 147.531 14.862 147.531 25.4809C147.531 33.8243 156.633 33.8243 160.173 30.0319L160.931 32.0545L165.229 31.296C163.207 26.9979 166.494 16.1262 166.999 12.5865ZM157.139 28.0092C150.818 30.7904 150.312 20.4243 156.128 16.379C157.645 15.3677 159.92 15.1148 161.69 15.6205C161.943 16.1262 160.679 26.4922 157.139 28.0092Z" fill="#194135"/>
<path d="M109.859 48.7415C109.101 48.4887 108.09 48.4887 107.331 48.4887C103.792 48.4887 100.505 50.5113 97.9764 52.534L93.6783 73.2661H86.0934L92.4142 41.4094H99.4934L98.4821 46.7189C102.275 43.4321 105.309 40.9037 108.848 40.9037C109.859 40.9037 111.124 41.1566 111.882 41.4094L109.859 48.7415Z" fill="#194135"/>
<path d="M125.535 59.613L118.962 60.1187C118.962 60.8772 118.962 61.13 118.962 61.8885C118.962 65.9338 120.984 67.9565 125.029 67.9565C127.305 67.9565 129.833 66.9451 132.109 65.4282L135.143 70.9904C131.35 73.2659 127.558 74.0244 123.26 74.0244C115.675 74.0244 111.124 69.4734 111.124 61.3829C111.124 50.5111 117.95 40.3979 129.328 40.3979C136.154 40.3979 141.211 42.9262 141.211 49.247C140.958 55.8206 134.131 58.8545 125.535 59.613ZM129.075 46.213C124.271 46.213 121.237 50.0055 119.973 54.5564L123.765 54.3036C129.075 53.7979 133.879 52.7866 133.879 49.7526C133.626 47.2243 132.109 46.213 129.075 46.213Z" fill="#194135"/>
<path d="M172.309 73.266H166.746L162.448 57.3377L152.082 73.266H146.773L143.992 41.4093H151.071L152.082 62.6471L161.69 47.7301H166.241L170.286 62.6471L179.894 41.4093H187.479L172.309 73.266Z" fill="#194135"/>
<path d="M240.826 48.7415C240.068 48.4887 239.056 48.4887 238.298 48.4887C234.758 48.4887 231.471 50.5113 228.943 52.534L224.898 73.2661H217.313L223.634 41.4094H230.713L229.701 46.7189C233.494 43.4321 236.528 40.9037 240.068 40.9037C241.079 40.9037 242.343 41.1566 243.101 41.4094L240.826 48.7415Z" fill="#194135"/>
<path d="M268.89 73.2658H263.075V68.7148C259.535 72.5073 256.249 74.2771 252.456 74.2771C244.618 74.2771 242.09 68.2092 242.09 61.6356C242.09 51.2695 248.158 40.6506 260.041 40.6506C262.569 40.6506 265.603 41.4091 267.626 42.1676L270.407 29.0204H277.992L268.89 73.2658ZM260.041 45.9601C253.215 45.9601 249.928 55.3148 249.928 61.3827C249.928 65.428 251.192 68.2092 254.479 68.2092C258.524 68.2092 262.064 63.4054 263.581 61.1299L266.362 47.2242C264.339 46.4657 262.317 45.9601 260.041 45.9601Z" fill="#194135"/>
<path d="M298.219 49.4997C296.954 47.2242 294.679 46.2129 291.645 46.2129C289.117 46.2129 286.335 47.2242 286.335 50.0053C286.335 52.028 288.864 53.0393 292.151 54.0506C296.449 55.5676 302.011 57.8431 302.011 62.8997C302.011 71.4959 294.932 74.0243 287.347 74.0243C282.796 74.0243 277.486 72.5073 275.211 67.7035L281.026 64.4167C282.543 67.1978 285.071 68.462 287.852 68.462C290.886 68.462 294.426 67.7035 294.426 64.4167C294.426 62.8997 292.403 61.8884 289.622 60.8771C285.071 59.3601 279.003 57.3374 279.003 51.5223C279.003 43.9374 285.324 40.6506 292.656 40.6506C297.207 40.6506 302.264 42.1676 304.539 46.7185L298.219 49.4997Z" fill="#194135"/>
<path d="M215.29 42.4206C198.35 36.8583 184.192 46.2131 184.192 62.8999C184.192 76.2999 198.603 76.0471 204.671 70.232L205.682 73.5188L212.762 72.2546C209.475 65.4282 214.531 48.2357 215.29 42.4206ZM199.614 67.198C189.754 71.4961 188.743 55.0621 198.097 48.7414C200.626 47.2244 203.913 46.7187 206.947 47.4772C207.199 47.9829 205.43 64.6697 199.614 67.198Z" fill="#194135"/>
<defs>
<linearGradient id="paint0_linear_701_116" x1="40.5279" y1="42.7407" x2="38.3856" y2="68.5133" gradientUnits="userSpaceOnUse">
<stop offset="0.19" stop-color="#F39322"/>
<stop offset="0.42" stop-color="#F7AA20"/>
<stop offset="0.79" stop-color="#FCC91F"/>
<stop offset="1" stop-color="#FFD51F"/>
</linearGradient>
<linearGradient id="paint1_linear_701_116" x1="28.0512" y1="67.6938" x2="19.4037" y2="41.4158" gradientUnits="userSpaceOnUse">
<stop offset="0.14" stop-color="#F39322"/>
<stop offset="0.76" stop-color="#FFD51F"/>
</linearGradient>
<linearGradient id="paint2_linear_701_116" x1="54.1217" y1="51.8158" x2="61.965" y2="27.1034" gradientUnits="userSpaceOnUse">
<stop offset="0.03" stop-color="#A6CB71"/>
<stop offset="0.21" stop-color="#A1C86E"/>
<stop offset="0.41" stop-color="#93C166"/>
<stop offset="0.63" stop-color="#7BB559"/>
<stop offset="0.86" stop-color="#5BA548"/>
<stop offset="1" stop-color="#449A3B"/>
</linearGradient>
<linearGradient id="paint3_linear_701_116" x1="53.6308" y1="-1.47359" x2="53.9837" y2="21.7939" gradientUnits="userSpaceOnUse">
<stop stop-color="#7DBA47"/>
<stop offset="1" stop-color="#008C67"/>
</linearGradient>
<linearGradient id="paint4_linear_701_116" x1="40.4669" y1="13.2564" x2="9.88684" y2="48.7949" gradientUnits="userSpaceOnUse">
<stop offset="0.18" stop-color="#7DBA47"/>
<stop offset="0.32" stop-color="#6EB44A"/>
<stop offset="0.58" stop-color="#48A654"/>
<stop offset="0.93" stop-color="#0C9063"/>
<stop offset="1" stop-color="#008C67"/>
</linearGradient>
</defs>
</svg>
