<svg width="138" height="139" viewBox="0 0 138 139" fill="none" xmlns="http://www.w3.org/2000/svg">
<path d="M68.7848 11.5817C83.9862 11.5817 98.5661 17.6828 109.316 28.5446C120.066 39.4065 126.105 54.138 126.105 69.4975C126.105 84.857 120.066 99.5885 109.316 110.45C98.5661 121.312 83.9862 127.413 68.7848 127.413C53.5833 127.413 39.0034 121.312 28.2533 110.45C17.5033 99.591 11.4649 84.8595 11.4649 69.5C11.4821 54.1455 17.5278 39.4239 28.273 28.5645C39.0182 17.7076 53.5882 11.5991 68.7848 11.5817ZM68.7848 0C50.5421 0 33.0462 7.32232 20.1466 20.3561C7.24697 33.3898 0 51.0676 0 69.5C0 87.9324 7.24697 105.61 20.1466 118.644C33.0462 131.678 50.5421 139 68.7848 139C87.0275 139 104.523 131.678 117.423 118.644C130.323 105.61 137.57 87.9324 137.57 69.5C137.57 51.0676 130.323 33.3898 117.423 20.3561C104.523 7.32232 87.0275 0 68.7848 0ZM51.5886 98.4567V40.5408L103.177 70.3439L51.5886 98.4567Z" fill="white"/>
</svg>
