<svg width="105" height="93" viewBox="0 0 105 93" fill="none" xmlns="http://www.w3.org/2000/svg">
<path d="M27.7987 17.6595C26.6728 16.3084 25.9972 14.7321 25.9972 12.7054C25.9972 12.255 25.9972 11.3543 25.9972 10.2283C25.9972 9.10241 25.9972 8.20166 25.9972 7.75129C25.9972 5.72461 26.6728 3.92312 27.7987 2.79719C28.9246 1.67125 30.7261 0.770508 32.978 0.770508C34.5543 0.770508 35.6802 0.995694 36.8061 1.67125C37.7069 2.12163 38.6076 2.79719 39.058 3.69793C39.5084 4.59868 39.7336 5.04905 39.9588 5.72461C39.9588 5.9498 39.9588 5.9498 39.7336 6.17499C39.7336 6.17499 39.5084 6.40017 39.2832 6.40017H38.6076C38.3825 6.40017 38.3825 6.40017 38.1573 6.40017C37.9321 6.40017 37.9321 6.17499 37.9321 5.9498C37.7069 5.04905 37.0313 4.14831 36.1306 3.69793C35.2298 3.02237 34.1039 2.79719 32.7528 2.79719C31.1765 2.79719 29.8254 3.24756 28.9246 4.14831C28.0239 5.04905 27.5735 6.40017 27.3483 8.20166C27.3483 8.65204 27.3483 9.55278 27.3483 10.4535C27.3483 11.5795 27.3483 12.255 27.3483 12.7054C27.3483 14.5069 28.0239 16.0832 28.9246 16.7588C29.8254 17.4343 31.1765 18.1099 32.7528 18.1099C34.3291 18.1099 35.6802 17.6595 36.581 16.7588C37.4817 15.858 38.3825 14.2817 38.3825 12.4802V11.1291H33.8787C33.6535 11.1291 33.6535 11.1291 33.4283 10.9039C33.4283 10.9039 33.2032 10.6787 33.2032 10.4535V10.2283C33.2032 10.0032 33.2032 10.0032 33.4283 9.77797C33.4283 9.77797 33.6535 9.55278 33.8787 9.55278H39.5084C39.7336 9.55278 39.9588 9.55278 39.9588 9.77797C39.9588 9.77797 40.1839 10.0032 40.1839 10.2283V12.4802C40.1839 13.8313 39.9588 15.1824 39.2832 16.0832C38.8328 17.2091 37.9321 17.8847 36.8061 18.5602C35.6802 19.2358 34.5543 19.461 32.978 19.461C30.7261 19.6862 28.9246 19.0106 27.7987 17.6595Z" fill="white"/>
<path d="M49.4171 19.2359C49.4171 19.2359 49.1919 19.0107 49.1919 18.7855V1.67135C49.1919 1.44616 49.1919 1.44616 49.4171 1.22098C49.4171 0.995789 49.6423 0.995789 49.8675 0.995789H60.0009C60.226 0.995789 60.4512 0.995789 60.4512 1.22098C60.4512 1.22098 60.6764 1.44616 60.6764 1.67135V2.12172C60.6764 2.34691 60.6764 2.34691 60.4512 2.57209C60.226 2.57209 60.226 2.79728 60.0009 2.79728H50.7682V9.55288H59.3253C59.5505 9.55288 59.7757 9.55288 59.7757 9.77807C59.7757 9.77807 60.0009 10.0033 60.0009 10.2284V10.6788C60.0009 10.904 60.0009 10.904 59.7757 11.1292C59.5505 11.1292 59.5505 11.3544 59.3253 11.3544H50.7682V18.3352H60.0009C60.226 18.3352 60.4512 18.3352 60.4512 18.5603C60.4512 18.5603 60.6764 18.7855 60.6764 19.0107V18.7855C60.6764 19.0107 60.6764 19.0107 60.4512 19.2359C60.226 19.2359 60.226 19.4611 60.0009 19.4611H49.6423C49.6423 19.2359 49.4171 19.2359 49.4171 19.2359Z" fill="white"/>
<path d="M73.9624 19.2359C73.9624 19.2359 73.7372 19.0107 73.7372 18.7855V2.57209H68.5579C68.3327 2.57209 68.3327 2.57209 68.1075 2.34691C68.1075 2.34691 67.8823 2.12172 67.8823 1.89653V1.67135C67.8823 1.44616 67.8823 1.44616 68.1075 1.22098C68.1075 0.995789 68.3327 0.995789 68.5579 0.995789H80.4928C80.718 0.995789 80.9431 0.995789 80.9431 1.22098C80.9431 1.22098 81.1683 1.44616 81.1683 1.67135V2.12172C81.1683 2.34691 81.1683 2.34691 80.9431 2.57209C80.718 2.57209 80.718 2.79728 80.4928 2.79728H75.3135V18.7855C75.3135 19.0107 75.3135 19.0107 75.0883 19.2359C75.0883 19.2359 74.8631 19.4611 74.6379 19.4611H74.4127C74.4127 19.2359 74.1875 19.2359 73.9624 19.2359Z" fill="white"/>
<path d="M97.6064 89.4948C97.1561 89.4948 96.2553 89.4948 95.3546 89.4948C94.4538 89.4948 93.7783 89.4948 93.1027 89.4948C90.6256 89.4948 88.8242 88.8192 87.6982 87.4681C86.5723 86.117 85.8967 84.5407 85.8967 82.514C85.8967 80.4873 86.5723 78.6858 87.6982 77.5599C88.8242 76.4339 90.6256 75.7584 93.1027 75.5332C94.2286 75.5332 94.9042 75.5332 95.3546 75.5332C95.8049 75.5332 96.4805 75.5332 97.6064 75.5332C102.335 75.7584 104.812 78.0103 104.812 82.514C104.812 87.0177 102.335 89.4948 97.6064 89.4948ZM101.66 78.911C100.759 78.0103 99.1827 77.5599 97.3812 77.3347C96.2553 77.3347 95.5798 77.3347 95.3546 77.3347C95.1294 77.3347 94.2286 77.3347 93.3279 77.3347C91.3012 77.3347 89.9501 78.0103 89.0493 78.911C88.1486 79.8117 87.6982 81.1629 87.6982 82.7392C87.6982 84.3155 88.1486 85.4414 89.0493 86.5673C89.9501 87.6933 91.5264 87.9185 93.3279 88.1436C93.7783 88.1436 94.4538 88.1436 95.3546 88.1436C96.2553 88.1436 96.9309 88.1436 97.3812 88.1436C99.4079 88.1436 100.759 87.4681 101.66 86.5673C102.561 85.6666 103.011 84.3155 103.011 82.7392C103.236 81.1629 102.786 79.8117 101.66 78.911Z" fill="white"/>
<path d="M104.362 66.0749C104.362 66.0749 104.137 66.3001 103.911 66.3001H86.7973C86.5721 66.3001 86.5721 66.3001 86.3469 66.0749C86.1217 66.0749 86.1217 65.8497 86.1217 65.6245V55.4911C86.1217 55.2659 86.1217 55.0407 86.3469 55.0407C86.3469 55.0407 86.5721 54.8156 86.7973 54.8156H87.2476C87.4728 54.8156 87.4728 54.8156 87.698 55.0407C87.698 55.2659 87.9232 55.2659 87.9232 55.4911V64.4986H94.6788V55.9415C94.6788 55.7163 94.6788 55.4911 94.904 55.4911C94.904 55.4911 95.1292 55.2659 95.3544 55.2659H95.8047C96.0299 55.2659 96.0299 55.2659 96.2551 55.4911C96.2551 55.4911 96.4803 55.7163 96.4803 55.9415V64.4986H104.137C104.362 64.4986 104.362 64.4986 104.587 64.7238C104.587 64.9489 104.812 64.9489 104.812 65.1741V65.6245C104.362 65.8497 104.362 66.0749 104.362 66.0749Z" fill="white"/>
<path d="M104.362 46.0334C104.362 46.0334 104.137 46.2586 103.911 46.2586H86.7973C86.5721 46.2586 86.5721 46.2586 86.3469 46.0334C86.1217 46.0334 86.1217 45.8082 86.1217 45.5831V35.4497C86.1217 35.2245 86.1217 34.9993 86.3469 34.9993C86.3469 34.9993 86.5721 34.7741 86.7973 34.7741H87.2476C87.4728 34.7741 87.4728 34.7741 87.698 34.9993C87.698 35.2245 87.9232 35.2245 87.9232 35.4497V44.4571H94.6788V35.9C94.6788 35.6749 94.6788 35.4497 94.904 35.4497C94.904 35.4497 95.1292 35.2245 95.3544 35.2245H95.8047C96.0299 35.2245 96.0299 35.2245 96.2551 35.4497C96.2551 35.4497 96.4803 35.6749 96.4803 35.9V44.4571H104.137C104.362 44.4571 104.362 44.4571 104.587 44.6823C104.587 44.9075 104.812 44.9075 104.812 45.1327V45.5831C104.362 45.8082 104.362 45.8083 104.362 46.0334Z" fill="white"/>
<path d="M10.0092 62.4712C9.78398 62.246 9.78398 62.0209 9.78398 61.7957V58.8682C7.7573 58.6431 5.9558 58.1927 4.60468 57.2919C3.25356 56.3912 2.12763 55.4904 1.45207 54.3645C0.551325 53.2386 0.100952 52.1126 0.100952 50.7615C0.100952 50.5363 0.100952 50.3111 0.326139 50.086C0.551325 49.8608 0.776512 49.8608 1.0017 49.8608H6.40618C6.85655 49.8608 7.08174 49.8608 7.30692 50.086C7.53211 50.086 7.7573 50.3111 7.98248 50.7615C8.88323 52.3378 10.4595 53.0134 12.7114 53.0134C14.2877 53.0134 15.4136 52.7882 16.0892 52.3378C16.9899 51.8875 17.2151 51.2119 17.2151 50.5363C17.2151 49.8608 16.9899 49.4104 16.5396 49.1852C16.0892 48.7348 15.4136 48.5097 14.5129 48.2845C13.6121 48.0593 12.261 47.6089 10.6847 47.3837C7.30692 46.7082 4.82987 45.8074 3.25356 44.4563C1.67726 43.1052 0.776512 41.3037 0.776512 38.6014C0.776512 36.3496 1.67726 34.5481 3.25356 32.9718C4.82987 31.3955 7.08174 30.4947 9.78398 30.0444V27.1169C9.78398 26.8917 9.78398 26.6666 10.0092 26.4414C10.2343 26.2162 10.4595 26.2162 10.6847 26.2162H14.2877C14.5129 26.2162 14.7381 26.2162 14.9633 26.4414C15.1885 26.6666 15.1885 26.8917 15.1885 27.1169V30.0444C16.9899 30.2695 18.5663 30.9451 19.9174 31.8459C21.2685 32.7466 22.1692 33.6473 22.8448 34.7733C23.5204 35.8992 23.9707 36.8 23.9707 37.9259C23.9707 38.1511 23.9707 38.3763 23.7455 38.6014C23.5204 38.8266 23.2952 38.8266 23.07 38.8266H17.6655C16.9899 38.8266 16.5396 38.6014 16.3144 38.1511C16.0892 37.4755 15.6388 37.0251 14.9633 36.8C14.2877 36.3496 13.387 36.1244 12.4862 36.1244C11.3603 36.1244 10.4595 36.3496 9.78398 36.8C9.10842 37.2503 8.88323 37.7007 8.88323 38.6014C8.88323 39.5022 9.3336 39.9526 10.0092 40.4029C10.9099 40.8533 12.261 41.3037 14.5129 41.7541C16.9899 42.2044 19.2418 42.88 20.5929 43.5556C22.1692 44.2311 23.2952 45.1319 23.9707 46.2578C24.6463 47.3837 25.0967 48.7348 25.0967 50.5363C25.0967 53.0134 24.1959 55.0401 22.3944 56.3912C20.5929 57.9675 18.3411 58.8682 15.1885 59.3186V62.246C15.1885 62.4712 15.1885 62.6964 14.9633 62.9216C14.7381 63.1468 14.5129 63.1468 14.2877 63.1468H10.6847C10.4595 62.6964 10.2343 62.6964 10.0092 62.4712Z" fill="white"/>
<path d="M37.707 89.4947C33.6536 87.6932 30.501 85.2162 28.4744 82.2888C26.4477 79.3613 25.3217 75.9835 25.0966 72.3806C25.0966 71.9302 25.3217 71.2546 25.5469 71.0294C26.2225 70.5791 26.6729 70.5791 27.1232 70.5791H40.4092C41.9855 70.5791 42.8863 71.2546 43.5619 72.3806C44.4626 74.4072 45.5885 75.9835 47.1648 76.8843C48.7411 77.785 50.5426 78.2354 52.5693 78.2354C55.2716 78.2354 57.5234 77.3347 59.3249 75.7584C61.1264 74.182 62.0272 71.9302 62.0272 69.0028C62.0272 66.5257 61.1264 64.2738 59.3249 62.6975C57.5234 61.1212 55.2716 60.2205 52.5693 60.2205C50.993 60.2205 49.8671 60.4457 48.7411 60.896C47.8404 61.3464 46.9397 61.7968 46.0389 62.4724C45.1382 63.1479 44.2374 63.5983 43.5619 63.5983H30.501C30.0507 63.5983 29.3751 63.3731 29.1499 62.9227C28.6995 62.4724 28.4744 62.022 28.4744 61.5716L31.8522 28.6944C31.8522 27.7936 32.3025 27.1181 32.7529 26.6677C33.4285 26.2173 34.104 25.9921 34.7796 25.9921H72.8361C73.5117 25.9921 74.1872 26.2173 74.4124 26.6677C74.8628 27.1181 75.088 27.5684 75.088 28.244V37.7018C75.088 38.3774 74.8628 38.8278 74.4124 39.2781C73.962 39.7285 73.5117 39.9537 72.8361 39.9537H45.8137L44.6878 51.4382C46.2641 50.3123 47.8404 49.6367 49.6419 48.9612C51.4434 48.5108 53.9204 48.0604 56.8479 48.0604C60.9012 48.0604 64.5042 48.9612 68.1072 50.7627C71.7102 52.5641 74.4124 55.0412 76.4391 58.419C78.4658 61.5716 79.5917 65.3998 79.5917 69.6783C79.5917 73.9569 78.4658 78.0102 76.2139 81.388C73.962 84.7658 70.8094 87.4681 66.7561 89.4947C62.7027 91.5214 57.7486 92.4222 52.1189 92.4222C46.7145 92.197 41.7604 91.2962 37.707 89.4947Z" fill="white"/>
</svg>
