<svg width="1440" height="1018" viewBox="0 0 1440 1018" fill="none" xmlns="http://www.w3.org/2000/svg">
<path d="M-33.7858 50.2879C783.446 107.97 1287.28 -34.3133 1528.7 7.98732C1770.12 50.2879 1528.7 994.979 1528.7 994.979C1528.7 994.979 1224.8 1028.78 747.458 994.979C270.115 961.182 -33.7858 994.979 -33.7858 994.979C-33.7858 994.979 -851.018 -7.39426 -33.7858 50.2879Z" fill="#72B944"/>
<mask id="mask0_806_9" style="mask-type:alpha" maskUnits="userSpaceOnUse" x="-397" y="0" width="2034" height="1010">
<path d="M-33.7858 50.2879C783.446 107.97 1287.28 -34.3133 1528.7 7.98732C1770.12 50.2879 1528.7 994.979 1528.7 994.979C1528.7 994.979 1224.8 1028.78 747.458 994.979C270.115 961.182 -33.7858 994.979 -33.7858 994.979C-33.7858 994.979 -851.018 -7.39426 -33.7858 50.2879Z" fill="#72B944"/>
</mask>
<g mask="url(#mask0_806_9)">
<g filter="url(#filter0_d_806_9)">
<path opacity="0.5" d="M-21.0811 1091.93C-102.306 1017.48 -102.306 896.767 -21.0811 822.311L474.167 371.06C555.392 296.604 688.511 296.604 769.736 371.06C850.961 445.516 850.961 566.226 769.736 640.682L274.488 1091.93C193.263 1166.39 61.2721 1166.39 -21.0811 1091.93Z" fill="#58A345"/>
<path d="M927.674 1085.17C846.448 1010.71 846.448 890.001 927.674 815.545L1422.92 364.294C1504.15 289.838 1637.27 289.838 1718.49 364.294C1799.72 438.75 1799.72 559.46 1718.49 633.916L1223.24 1085.17C1142.02 1159.62 1010.03 1159.62 927.674 1085.17Z" fill="#58A345"/>
<path d="M68.0412 183.791C-13.184 109.335 -13.184 -11.3748 68.0412 -85.8312L563.289 -537.082C644.514 -611.538 777.633 -611.538 858.858 -537.082C940.083 -462.626 940.083 -341.916 858.858 -267.46L363.61 183.791C282.385 258.248 150.394 258.248 68.0412 183.791Z" fill="#58A345"/>
<path d="M951.364 243.582C870.139 169.126 870.139 48.416 951.364 -26.0404L1446.61 -477.291C1527.84 -551.748 1660.96 -551.748 1742.18 -477.291C1823.41 -402.835 1823.41 -282.125 1742.18 -207.669L1246.93 243.582C1164.58 318.038 1032.59 318.038 951.364 243.582Z" fill="#58A345" fill-opacity="0.5"/>
</g>
</g>
<defs>
<filter id="filter0_d_806_9" x="-86" y="-592.924" width="1893.1" height="1748.7" filterUnits="userSpaceOnUse" color-interpolation-filters="sRGB">
<feFlood flood-opacity="0" result="BackgroundImageFix"/>
<feColorMatrix in="SourceAlpha" type="matrix" values="0 0 0 0 0 0 0 0 0 0 0 0 0 0 0 0 0 0 127 0" result="hardAlpha"/>
<feOffset dy="4"/>
<feGaussianBlur stdDeviation="2"/>
<feComposite in2="hardAlpha" operator="out"/>
<feColorMatrix type="matrix" values="0 0 0 0 0 0 0 0 0 0 0 0 0 0 0 0 0 0 0.25 0"/>
<feBlend mode="normal" in2="BackgroundImageFix" result="effect1_dropShadow_806_9"/>
<feBlend mode="normal" in="SourceGraphic" in2="effect1_dropShadow_806_9" result="shape"/>
</filter>
</defs>
</svg>
