<svg width="1440" height="1010" viewBox="0 0 1440 1010" fill="none" xmlns="http://www.w3.org/2000/svg">
<mask id="mask0_701_12" style="mask-type:alpha" maskUnits="userSpaceOnUse" x="-406" y="0" width="2034" height="1010">
<path d="M-42.7858 50.2879C774.446 107.97 1278.28 -34.3133 1519.7 7.98732C1761.12 50.2879 1519.7 994.979 1519.7 994.979C1519.7 994.979 1215.8 1028.78 738.458 994.979C261.115 961.182 -42.7858 994.979 -42.7858 994.979C-42.7858 994.979 -860.018 -7.39426 -42.7858 50.2879Z" fill="#02533B"/>
</mask>
<g mask="url(#mask0_701_12)">
<path d="M1505 0H-20V1076H1505V0Z" fill="url(#paint0_radial_701_12)"/>
<g opacity="0.3">
<path d="M1308.9 1129.1C1243.39 1069.58 1243.39 973.076 1308.9 913.557L1705.81 552.211C1771.32 492.691 1877.33 492.691 1942.84 552.211C2008.34 611.731 2008.34 708.231 1942.84 767.75L1545.92 1129.1C1480.41 1188.97 1374.4 1188.97 1308.9 1129.1Z" fill="#0E4924"/>
<path d="M822.13 416.525C756.623 357.005 756.623 260.505 822.13 200.985L1219.05 -160.36C1284.55 -219.88 1390.56 -219.88 1456.07 -160.36C1521.58 -100.84 1521.58 -4.34068 1456.07 55.1792L1059.15 416.525C993.646 476.397 887.637 476.397 822.13 416.525Z" fill="#0E4924"/>
<path d="M-147.87 1322.52C-213.377 1263 -213.377 1166.51 -147.87 1106.99L249.047 745.64C314.554 686.12 420.563 686.12 486.07 745.64C551.577 805.16 551.577 901.659 486.07 961.179L89.1532 1322.52C23.6461 1382.4 -82.3626 1382.4 -147.87 1322.52Z" fill="#0E4924"/>
<path d="M67.1303 490.525C1.62323 431.005 1.62323 334.505 67.1303 274.985L464.047 -86.3602C529.554 -145.88 635.563 -145.88 701.07 -86.3602C766.577 -26.8404 766.577 69.6593 701.07 129.179L304.153 490.525C238.646 550.044 132.637 550.044 67.1303 490.525Z" fill="#0E4924"/>
</g>
</g>
<defs>
<radialGradient id="paint0_radial_701_12" cx="0" cy="0" r="1" gradientUnits="userSpaceOnUse" gradientTransform="translate(760.462 644.552) scale(641.646 893.277)">
<stop stop-color="#28A34F"/>
<stop offset="0.9704" stop-color="#186935"/>
<stop offset="1" stop-color="#186935"/>
</radialGradient>
</defs>
</svg>
